<svg width="100" height="18" viewBox="0 0 100 18" fill="none" xmlns="http://www.w3.org/2000/svg">
<g clip-path="url(#clip0_411_134)">
<path d="M9 0L11.0206 6.21885H17.5595L12.2694 10.0623L14.2901 16.2812L9 12.4377L3.70993 16.2812L5.73056 10.0623L0.440492 6.21885H6.97937L9 0Z" fill="white"/>
<path d="M29 0L31.0206 6.21885H37.5595L32.2694 10.0623L34.2901 16.2812L29 12.4377L23.7099 16.2812L25.7306 10.0623L20.4405 6.21885H26.9794L29 0Z" fill="white"/>
<path d="M50 0L52.0206 6.21885H58.5595L53.2694 10.0623L55.2901 16.2812L50 12.4377L44.7099 16.2812L46.7306 10.0623L41.4405 6.21885H47.9794L50 0Z" fill="white"/>
<path d="M70 0L72.0206 6.21885H78.5595L73.2694 10.0623L75.2901 16.2812L70 12.4377L64.7099 16.2812L66.7306 10.0623L61.4405 6.21885H67.9794L70 0Z" fill="white"/>
<path d="M91 0.647214L92.8304 6.28065L92.8753 6.41885H93.0206H98.944L94.1519 9.9005L94.0343 9.98591L94.0792 10.1241L95.9096 15.7575L91.1176 12.2759L91 12.1905L90.8824 12.2759L86.0904 15.7575L87.9208 10.1241L87.9657 9.98591L87.8481 9.9005L83.056 6.41885H88.9794H89.1247L89.1696 6.28065L91 0.647214Z" stroke="white" stroke-width="0.4"/>
</g>
<defs>
<clipPath id="clip0_411_134">
<rect width="100" height="18" fill="white"/>
</clipPath>
</defs>
</svg>
